<svg width="420" height="115" viewBox="0 0 420 115" fill="none" xmlns="http://www.w3.org/2000/svg">
<path d="M2 113C8.56311 106.5 13.1068 101 27.2427 101C41.3786 101 45.9223 70.5008 66.1165 68.0008C86.3107 65.5009 93.3786 110.5 113.573 109.5C133.767 108.5 130.738 45.5012 151.437 39.0013C172.136 32.5015 180.214 11.5018 200.408 10.5019C220.602 9.50189 225.146 68.0008 244.835 68.0008C264.524 68.0008 270.078 30.0015 287.748 30.0015C305.417 30.0015 315.01 51.5011 336.214 52.0011C357.417 52.0011 357.922 94.0003 377.107 94.0003C396.291 94.0003 404.369 1.50202 418 2.00202" stroke="#16DBCC" stroke-width="3" stroke-linecap="round" stroke-linejoin="round"/>
</svg>
